<svg xmlns="http://www.w3.org/2000/svg" xmlns:xlink="http://www.w3.org/1999/xlink" width="277.059" height="50.31" viewBox="0 0 277.059 50.31">
  <defs>
    <clipPath id="clip-path">
      <rect id="Rectangle_6" data-name="Rectangle 6" width="277.059" height="50.31" fill="none"/>
    </clipPath>
  </defs>
  <g id="Group_2" data-name="Group 2" transform="translate(0 0)">
    <g id="Group_1" data-name="Group 1" transform="translate(0 0)" clip-path="url(#clip-path)">
      <path id="Path_1" data-name="Path 1" d="M2.189,39.946a3.386,3.386,0,0,1-1.322-.764l.244-.4a4.082,4.082,0,0,0,1.262.719,4.642,4.642,0,0,0,1.644.29,3.292,3.292,0,0,0,1.895-.436,1.408,1.408,0,0,0,.612-1.216,1.163,1.163,0,0,0-.328-.872,2.014,2.014,0,0,0-.818-.474,12.1,12.1,0,0,0-1.316-.306,12.341,12.341,0,0,1-1.536-.374,2.274,2.274,0,0,1-.97-.62,1.681,1.681,0,0,1-.4-1.192A1.866,1.866,0,0,1,1.9,32.8a3.36,3.36,0,0,1,2.162-.6,5.028,5.028,0,0,1,1.468.222A3.544,3.544,0,0,1,6.723,33l-.26.4a3.391,3.391,0,0,0-1.109-.558,4.507,4.507,0,0,0-1.306-.192,2.917,2.917,0,0,0-1.774.452,1.415,1.415,0,0,0-.6,1.184,1.236,1.236,0,0,0,.336.918,2.032,2.032,0,0,0,.834.5,11.989,11.989,0,0,0,1.352.33,11.066,11.066,0,0,1,1.484.36,2.3,2.3,0,0,1,.956.6,1.6,1.6,0,0,1,.389,1.146,1.789,1.789,0,0,1-.779,1.528A3.786,3.786,0,0,1,4,40.236a5.54,5.54,0,0,1-1.812-.29" transform="translate(0.271 10.074)" fill="#fff"/>
      <path id="Path_2" data-name="Path 2" d="M8.487,39.725a3.629,3.629,0,0,1-1.4-1.431,4.536,4.536,0,0,1,0-4.157,3.638,3.638,0,0,1,1.4-1.431,3.947,3.947,0,0,1,2-.511,3.935,3.935,0,0,1,2,.511,3.654,3.654,0,0,1,1.39,1.431,4.526,4.526,0,0,1,0,4.157,3.645,3.645,0,0,1-1.39,1.431,3.936,3.936,0,0,1-2,.512,3.948,3.948,0,0,1-2-.512m3.731-.4a3.231,3.231,0,0,0,1.216-1.262,3.794,3.794,0,0,0,.442-1.85,3.749,3.749,0,0,0-.442-1.842,3.237,3.237,0,0,0-1.216-1.254,3.558,3.558,0,0,0-3.47,0,3.218,3.218,0,0,0-1.216,1.254,3.749,3.749,0,0,0-.444,1.842,3.794,3.794,0,0,0,.444,1.85,3.213,3.213,0,0,0,1.216,1.262,3.568,3.568,0,0,0,3.47,0" transform="translate(2.061 10.075)" fill="#fff"/>
      <path id="Path_3" data-name="Path 3" d="M15.778,30.473a1.772,1.772,0,0,0-.39,1.246v1.346H18v.442H15.388V41h-.5V33.507h-1.5v-.442h1.5V31.658a2.057,2.057,0,0,1,.536-1.5,1.994,1.994,0,0,1,1.5-.55,2.8,2.8,0,0,1,.878.138,1.836,1.836,0,0,1,.7.4l-.26.382a1.838,1.838,0,0,0-1.284-.473,1.522,1.522,0,0,0-1.17.42" transform="translate(4.189 9.265)" fill="#fff"/>
      <path id="Path_4" data-name="Path 4" d="M22.2,40.086a1.907,1.907,0,0,1-.7.406,2.761,2.761,0,0,1-.886.144,1.983,1.983,0,0,1-1.49-.542,2.049,2.049,0,0,1-.528-1.491V33.1h-1.5v-.444h1.5V30.913h.5v1.742h2.614V33.1H19.091v5.428a1.752,1.752,0,0,0,.4,1.238,1.5,1.5,0,0,0,1.162.429,1.839,1.839,0,0,0,1.284-.474Z" transform="translate(5.348 9.673)" fill="#fff"/>
      <path id="Path_5" data-name="Path 5" d="M34.038,32.241,31.01,40.176h-.474l-2.812-7.263-2.829,7.263h-.442l-3.043-7.935h.49L24.666,39.6l2.828-7.355h.458L30.766,39.6l2.783-7.355Z" transform="translate(6.7 10.089)" fill="#fff"/>
      <path id="Path_6" data-name="Path 6" d="M37.23,32.928a2.828,2.828,0,0,1,.756,2.126v5.138H37.5V38.6a2.816,2.816,0,0,1-1.14,1.2,3.573,3.573,0,0,1-1.812.435,3.234,3.234,0,0,1-2.086-.611,2.12,2.12,0,0,1-.07-3.188,3.3,3.3,0,0,1,2.2-.6h2.89v-.78a2.4,2.4,0,0,0-.62-1.79,2.5,2.5,0,0,0-1.826-.612,4.221,4.221,0,0,0-1.574.291,3.858,3.858,0,0,0-1.254.78l-.276-.368a4.085,4.085,0,0,1,1.4-.856,4.872,4.872,0,0,1,1.72-.306,3,3,0,0,1,2.178.734m.252,4.969V36.246h-2.89a2.859,2.859,0,0,0-1.812.466,1.541,1.541,0,0,0-.572,1.262,1.6,1.6,0,0,0,.634,1.346,2.771,2.771,0,0,0,1.736.49,2.862,2.862,0,0,0,2.9-1.912" transform="translate(9.921 10.074)" fill="#fff"/>
      <path id="Path_7" data-name="Path 7" d="M40.633,32.706a3.5,3.5,0,0,1,1.95-.512v.5h-.138a2.742,2.742,0,0,0-2.156.872,3.471,3.471,0,0,0-.78,2.4v4.22H39V32.256h.49v1.91a2.874,2.874,0,0,1,1.138-1.46" transform="translate(12.206 10.074)" fill="#fff"/>
      <path id="Path_8" data-name="Path 8" d="M50.12,36.292H43.162a3.662,3.662,0,0,0,.474,1.8A3.243,3.243,0,0,0,44.9,39.335a3.649,3.649,0,0,0,1.8.442,3.731,3.731,0,0,0,1.5-.3,2.8,2.8,0,0,0,1.132-.88l.322.337a3.594,3.594,0,0,1-1.3.962,4.052,4.052,0,0,1-1.652.336,4.164,4.164,0,0,1-2.072-.511,3.716,3.716,0,0,1-1.43-1.431,4.135,4.135,0,0,1-.519-2.078,4.416,4.416,0,0,1,.481-2.08,3.552,3.552,0,0,1,1.338-1.43,3.806,3.806,0,0,1,3.8-.008,3.6,3.6,0,0,1,1.338,1.407,4.232,4.232,0,0,1,.49,2.048ZM44.8,33.066a3.08,3.08,0,0,0-1.146,1.154,3.619,3.619,0,0,0-.474,1.658h6.468a3.721,3.721,0,0,0-.5-1.658A3.158,3.158,0,0,0,48,33.066a3.12,3.12,0,0,0-1.6-.414,3.159,3.159,0,0,0-1.606.414" transform="translate(13.354 10.074)" fill="#fff"/>
      <path id="Path_9" data-name="Path 9" d="M53.579,39.946a3.386,3.386,0,0,1-1.322-.764l.244-.4a4.082,4.082,0,0,0,1.262.719,4.641,4.641,0,0,0,1.644.29,3.293,3.293,0,0,0,1.895-.436,1.409,1.409,0,0,0,.612-1.216,1.163,1.163,0,0,0-.328-.872,2.014,2.014,0,0,0-.818-.474,12.094,12.094,0,0,0-1.316-.306,12.341,12.341,0,0,1-1.536-.374,2.274,2.274,0,0,1-.97-.62,1.681,1.681,0,0,1-.4-1.192,1.866,1.866,0,0,1,.742-1.506,3.36,3.36,0,0,1,2.162-.6,5.028,5.028,0,0,1,1.468.222A3.544,3.544,0,0,1,58.113,33l-.26.4a3.391,3.391,0,0,0-1.109-.558,4.507,4.507,0,0,0-1.306-.192,2.917,2.917,0,0,0-1.774.452,1.415,1.415,0,0,0-.6,1.184,1.236,1.236,0,0,0,.336.918,2.032,2.032,0,0,0,.834.5,11.989,11.989,0,0,0,1.352.33,11.066,11.066,0,0,1,1.484.36,2.3,2.3,0,0,1,.956.6,1.6,1.6,0,0,1,.39,1.146,1.791,1.791,0,0,1-.78,1.528,3.786,3.786,0,0,1-2.248.566,5.54,5.54,0,0,1-1.812-.29" transform="translate(16.353 10.074)" fill="#fff"/>
      <path id="Path_10" data-name="Path 10" d="M59.877,39.725a3.629,3.629,0,0,1-1.4-1.431,4.536,4.536,0,0,1,0-4.157,3.638,3.638,0,0,1,1.4-1.431,4.17,4.17,0,0,1,4,0,3.654,3.654,0,0,1,1.39,1.431,4.526,4.526,0,0,1,0,4.157,3.645,3.645,0,0,1-1.39,1.431,4.16,4.16,0,0,1-4,0m3.731-.4a3.231,3.231,0,0,0,1.216-1.262,3.794,3.794,0,0,0,.442-1.85,3.749,3.749,0,0,0-.442-1.842,3.236,3.236,0,0,0-1.216-1.254,3.558,3.558,0,0,0-3.47,0,3.218,3.218,0,0,0-1.216,1.254,3.749,3.749,0,0,0-.444,1.842,3.794,3.794,0,0,0,.444,1.85,3.213,3.213,0,0,0,1.216,1.262,3.568,3.568,0,0,0,3.47,0" transform="translate(18.143 10.075)" fill="#fff"/>
      <rect id="Rectangle_5" data-name="Rectangle 5" width="0.504" height="11.345" transform="translate(86.407 38.919)" fill="#fff"/>
      <path id="Path_11" data-name="Path 11" d="M75.592,32.241v7.935H75.1V38.25A2.969,2.969,0,0,1,73.926,39.7a3.494,3.494,0,0,1-1.927.52A3.005,3.005,0,0,1,68.712,36.9V32.241h.5v4.633a2.946,2.946,0,0,0,.726,2.148,2.772,2.772,0,0,0,2.072.74,2.936,2.936,0,0,0,2.248-.878,3.315,3.315,0,0,0,.826-2.362V32.241Z" transform="translate(21.503 10.089)" fill="#fff"/>
      <path id="Path_12" data-name="Path 12" d="M80.607,40.086a1.906,1.906,0,0,1-.7.406,2.761,2.761,0,0,1-.886.144,1.983,1.983,0,0,1-1.49-.542A2.049,2.049,0,0,1,77,38.6V33.1H75.5v-.444H77V30.913h.5v1.742h2.614V33.1H77.5v5.428a1.752,1.752,0,0,0,.4,1.238,1.5,1.5,0,0,0,1.162.429,1.839,1.839,0,0,0,1.284-.474Z" transform="translate(23.627 9.673)" fill="#fff"/>
      <path id="Path_13" data-name="Path 13" d="M81.056,30.748A.462.462,0,0,1,80.9,30.4a.494.494,0,0,1,.5-.5.5.5,0,0,1,.352.144.462.462,0,0,1,.152.344.523.523,0,0,1-.5.505.5.5,0,0,1-.352-.146m.108,2.224h.5v7.935h-.5Z" transform="translate(25.318 9.356)" fill="#fff"/>
      <path id="Path_14" data-name="Path 14" d="M85.287,39.725a3.629,3.629,0,0,1-1.4-1.431,4.536,4.536,0,0,1,0-4.157,3.638,3.638,0,0,1,1.4-1.431,4.17,4.17,0,0,1,4,0,3.654,3.654,0,0,1,1.39,1.431,4.526,4.526,0,0,1,0,4.157,3.645,3.645,0,0,1-1.39,1.431,4.16,4.16,0,0,1-4,0m3.731-.4a3.231,3.231,0,0,0,1.216-1.262,3.794,3.794,0,0,0,.442-1.85,3.749,3.749,0,0,0-.442-1.842,3.237,3.237,0,0,0-1.216-1.254,3.558,3.558,0,0,0-3.47,0,3.218,3.218,0,0,0-1.216,1.254,3.749,3.749,0,0,0-.444,1.842,3.794,3.794,0,0,0,.444,1.85,3.213,3.213,0,0,0,1.216,1.262,3.568,3.568,0,0,0,3.47,0" transform="translate(26.094 10.075)" fill="#fff"/>
      <path id="Path_15" data-name="Path 15" d="M97.307,33.058a3.362,3.362,0,0,1,.856,2.468V40.19h-.5V35.558a2.984,2.984,0,0,0-.712-2.148,2.672,2.672,0,0,0-2.026-.742,3.108,3.108,0,0,0-2.338.88,3.239,3.239,0,0,0-.857,2.362v4.28h-.5V32.254h.49V34.2a3.079,3.079,0,0,1,1.23-1.468,3.727,3.727,0,0,1,2.026-.534,3.145,3.145,0,0,1,2.34.864" transform="translate(28.547 10.074)" fill="#fff"/>
      <path id="Path_16" data-name="Path 16" d="M47.217,6.8a12.671,12.671,0,0,0-9.311,3.684A12.245,12.245,0,0,0,34.2,19.516a12.171,12.171,0,0,0,3.706,9.015,12.709,12.709,0,0,0,9.311,3.66,12.709,12.709,0,0,0,9.311-3.66,12.171,12.171,0,0,0,3.706-9.015,12.245,12.245,0,0,0-3.706-9.036A12.671,12.671,0,0,0,47.217,6.8M51.61,24.435a6.032,6.032,0,0,1-8.786,0,7.057,7.057,0,0,1-1.715-4.92,7.138,7.138,0,0,1,1.715-4.941,5.981,5.981,0,0,1,8.786,0,7.139,7.139,0,0,1,1.716,4.941,7.057,7.057,0,0,1-1.716,4.92" transform="translate(10.702 2.126)" fill="#fff"/>
      <path id="Path_17" data-name="Path 17" d="M79.432,7.11H75.157A1.317,1.317,0,0,0,73.84,8.427V20.379A5.808,5.808,0,0,1,72.33,24.7a4.917,4.917,0,0,1-3.569,1.486q-4.165,0-4.165-5.673V8.427A1.317,1.317,0,0,0,63.28,7.11H59a1.317,1.317,0,0,0-1.317,1.317v13.6q0,4.989,2.745,7.527a9.631,9.631,0,0,0,6.794,2.539,7.788,7.788,0,0,0,6.612-3.615v1.931a1.317,1.317,0,0,0,1.317,1.317h4.275a1.317,1.317,0,0,0,1.317-1.317V8.427A1.317,1.317,0,0,0,79.432,7.11" transform="translate(18.053 2.225)" fill="#fff"/>
      <path id="Path_18" data-name="Path 18" d="M94.065,6.8a9.61,9.61,0,0,0-7,3.158V8.525a1.317,1.317,0,0,0-1.317-1.317H81.519A1.317,1.317,0,0,0,80.2,8.525V30.508a1.317,1.317,0,0,0,1.317,1.317h4.229a1.317,1.317,0,0,0,1.317-1.317V18.1A5.815,5.815,0,0,1,88.6,13.728a4.993,4.993,0,0,1,3.591-1.488q4.163,0,4.165,5.675V30.508a1.317,1.317,0,0,0,1.317,1.317H101.9a1.317,1.317,0,0,0,1.317-1.317V16.862a10.138,10.138,0,0,0-2.631-7.321A8.669,8.669,0,0,0,94.065,6.8" transform="translate(25.098 2.126)" fill="#fff"/>
      <path id="Path_19" data-name="Path 19" d="M117.3,27.646a1.318,1.318,0,0,0-1.918-.456,3.685,3.685,0,0,1-2.147.663,2.279,2.279,0,0,1-1.74-.8,3.161,3.161,0,0,1-.731-2.219V13.806h4.631a1.317,1.317,0,0,0,1.317-1.317V10.183a1.317,1.317,0,0,0-1.317-1.317h-4.631V2.816A1.317,1.317,0,0,0,109.447,1.5h-4.275a1.317,1.317,0,0,0-1.318,1.317v6.05h-1.565a1.317,1.317,0,0,0-1.317,1.317V12.49a1.317,1.317,0,0,0,1.317,1.317h1.565V25.154a8.2,8.2,0,0,0,8.442,8.694,9.458,9.458,0,0,0,5.915-2.22,1.313,1.313,0,0,0,.335-1.646Z" transform="translate(31.598 0.469)" fill="#fff"/>
      <path id="Path_20" data-name="Path 20" d="M135.916,9.038A11.459,11.459,0,0,0,128.6,6.8a18.418,18.418,0,0,0-9.943,2.761,1.315,1.315,0,0,0-.373,1.86l1.572,2.274a1.311,1.311,0,0,0,1.745.389A13.657,13.657,0,0,1,123.95,13a11.26,11.26,0,0,1,3.775-.709q4.163,0,4.165,3.935v.138h-5.126a13.126,13.126,0,0,0-7.5,1.876,6.386,6.386,0,0,0-2.745,5.651,7.542,7.542,0,0,0,2.653,6.04,9.767,9.767,0,0,0,6.567,2.265,8.089,8.089,0,0,0,6.566-3.34v1.657a1.317,1.317,0,0,0,1.317,1.317h3.817a1.317,1.317,0,0,0,1.317-1.317V16.131q0-4.851-2.836-7.092m-4.073,13.406a3.646,3.646,0,0,1-1.4,3,5.006,5.006,0,0,1-3.226,1.12,4.753,4.753,0,0,1-2.814-.709,2.354,2.354,0,0,1-.983-2.036q0-2.562,4.117-2.562h4.3Z" transform="translate(36.462 2.126)" fill="#fff"/>
      <path id="Path_21" data-name="Path 21" d="M154.557,18.967a16.766,16.766,0,0,0-2.357-1.213q-.985-.388-3.316-1.12a20.263,20.263,0,0,1-3.34-1.281,1.672,1.672,0,0,1-1.007-1.51q0-1.739,3.18-1.74a10.609,10.609,0,0,1,5.279,1.5,1.307,1.307,0,0,0,1.778-.512l1.276-2.279a1.316,1.316,0,0,0-.47-1.775A14.871,14.871,0,0,0,147.968,6.8a11.161,11.161,0,0,0-7.092,2.151,6.744,6.744,0,0,0-2.745,5.559,5.68,5.68,0,0,0,2.791,5.148,17.5,17.5,0,0,0,2.447,1.326q1.075.459,3.112,1.1a12.179,12.179,0,0,1,3.112,1.372,2.019,2.019,0,0,1,1.075,1.6,1.612,1.612,0,0,1-.779,1.4,3.707,3.707,0,0,1-2.1.526,12.781,12.781,0,0,1-7.133-2.219,1.326,1.326,0,0,0-1.82.331l-1.519,2.164a1.316,1.316,0,0,0,.319,1.839,17.025,17.025,0,0,0,4.3,2.116,18.172,18.172,0,0,0,5.72.985,10.36,10.36,0,0,0,6.794-2.2,7.168,7.168,0,0,0,2.677-5.835q0-3.637-2.563-5.193" transform="translate(42.895 2.126)" fill="#fff"/>
      <path id="Path_22" data-name="Path 22" d="M170.19,8.923a9.583,9.583,0,0,0-6.977,3.158V1.318A1.319,1.319,0,0,0,161.895,0h-4.229a1.318,1.318,0,0,0-1.317,1.318V32.634a1.317,1.317,0,0,0,1.317,1.317h4.229a1.318,1.318,0,0,0,1.318-1.317V20.683a5.812,5.812,0,0,1,1.532-4.369,4.993,4.993,0,0,1,3.592-1.488q4.163,0,4.163,5.673V32.634a1.317,1.317,0,0,0,1.317,1.317h4.23a1.317,1.317,0,0,0,1.317-1.317V18.989a10.086,10.086,0,0,0-2.655-7.321,8.713,8.713,0,0,0-6.52-2.745" transform="translate(48.927 0)" fill="#fff"/>
      <path id="Path_23" data-name="Path 23" d="M198.735,9.861A12.738,12.738,0,0,0,190.11,6.8a12.582,12.582,0,0,0-8.809,3.432,11.949,11.949,0,0,0-3.729,9.243,12.133,12.133,0,0,0,3.66,9.265A12.956,12.956,0,0,0,190.5,32.19a13.622,13.622,0,0,0,8.721-3.025,1.308,1.308,0,0,0,.127-1.908L197.3,25.042a1.318,1.318,0,0,0-1.775-.144,8.02,8.02,0,0,1-5.051,1.619,6.73,6.73,0,0,1-4.025-1.281,4.889,4.889,0,0,1-2.1-3.294h17.936v-3.66a10.55,10.55,0,0,0-3.546-8.42m-14.207,7.184A4.728,4.728,0,0,1,186.5,13.7a6.184,6.184,0,0,1,3.729-1.235,5.2,5.2,0,0,1,3.454,1.19,4.881,4.881,0,0,1,1.648,3.386Z" transform="translate(55.569 2.126)" fill="#fff"/>
      <path id="Path_24" data-name="Path 24" d="M214.4,8.224a1.325,1.325,0,0,0-1.624-1.274,9.571,9.571,0,0,0-2.436.9,11.54,11.54,0,0,0-3.318,2.563V8.487A1.317,1.317,0,0,0,205.7,7.17h-4.229a1.317,1.317,0,0,0-1.317,1.317V30.469a1.317,1.317,0,0,0,1.317,1.317H205.7a1.317,1.317,0,0,0,1.317-1.317V21.125a9.887,9.887,0,0,1,1.51-5.743,5.2,5.2,0,0,1,4.576-2.173,1.318,1.318,0,0,0,1.318-1.327Z" transform="translate(62.636 2.165)" fill="#fff"/>
      <path id="Path_25" data-name="Path 25" d="M22.6,18.561V30.142a2.047,2.047,0,0,1-2.047,2.047H17.742a2.047,2.047,0,0,1-2.047-2.047V18.377a8.076,8.076,0,0,0-.893-4.3A3.181,3.181,0,0,0,11.92,12.7,4.917,4.917,0,0,0,8.4,14.192a5.812,5.812,0,0,0-1.532,4.369v3.144a2.047,2.047,0,0,1-2.048,2.048H2.048A2.047,2.047,0,0,1,0,21.705V9.26A2.047,2.047,0,0,1,2.048,7.213H4.816A2.047,2.047,0,0,1,6.864,9.26V10a8.493,8.493,0,0,1,6.5-3.2,7.048,7.048,0,0,1,4.233,1.373,8.931,8.931,0,0,1,2.86,3.34,9.652,9.652,0,0,1,3.821-3.478A10.471,10.471,0,0,1,29.1,6.8a9.609,9.609,0,0,1,7,2.585q2.653,2.586,2.653,7.481V30.142a2.047,2.047,0,0,1-2.047,2.047H33.893a2.047,2.047,0,0,1-2.047-2.047V18.377q0-5.672-4.163-5.673a4.919,4.919,0,0,0-3.57,1.488,5.867,5.867,0,0,0-1.51,4.369" transform="translate(0 2.128)" fill="#fff"/>
      <path id="Path_26" data-name="Path 26" d="M3.41,30.316a3.374,3.374,0,1,1,3.374-3.374A3.375,3.375,0,0,1,3.41,30.316" transform="translate(0.011 7.375)" fill="#fff"/>
    </g>
  </g>
</svg>
